<svg xmlns="http://www.w3.org/2000/svg" xmlns:xlink="http://www.w3.org/1999/xlink" viewBox="0 0 512 512" id="empty-cart">
  <defs>
    <linearGradient id="a" x1="342.57" x2="409.61" y1="309.6" y2="309.6" gradientUnits="userSpaceOnUse">
      <stop offset="0" stop-color="#cacfdd"></stop>
      <stop offset="1" stop-color="#eef0f1"></stop>
    </linearGradient>
    <linearGradient xlink:href="#a" id="b" x1="307.37" x2="332.36" y1="81.4" y2="81.4"></linearGradient>
    <linearGradient xlink:href="#a" id="c" x1="282.38" x2="307.37" y1="81.4" y2="81.4"></linearGradient>
    <linearGradient xlink:href="#a" id="d" x1="377.56" x2="402.55" y1="56.2" y2="56.2" gradientTransform="rotate(-45 417.036 73.7)"></linearGradient>
    <linearGradient xlink:href="#a" id="e" x1="352.57" x2="377.56" y1="56.2" y2="56.2" gradientTransform="rotate(-45 417.036 73.7)"></linearGradient>
  </defs>
  <g>
    <polygon fill="#f5f5f5" points="171.19 186.06 199.8 359.99 400.39 359.99 413.91 212.13 171.19 186.06"></polygon>
    <path fill="#a9afc4" d="M370.16,240.94a10.59,10.59,0,0,1,9.6,11.62l-7.22,71.57a6.9,6.9,0,0,1-13.76-.68l-.15-71.93A10.6,10.6,0,0,1,370.16,240.94Z"></path>
    <path fill="url(#a)" d="M409.61,259.21,400.39,360h-52.9C330,314.19,361.09,264.19,409.61,259.21Z" style="mix-blend-mode:multiply"></path>
    <circle cx="313.97" cy="426.15" r="17.98" fill="#5e6175"></circle>
    <circle cx="313.97" cy="426.15" r="6.48" fill="#f5f5f5"></circle>
    <circle cx="136.94" cy="426.15" r="17.98" fill="#5e6175"></circle>
    <circle cx="136.94" cy="426.15" r="6.48" fill="#f5f5f5"></circle>
    <path fill="#5e6175" d="M136.94 447.14a21 21 0 1121-21A21 21 0 01136.94 447.14zm0-36a15 15 0 1015 15A15 15 0 00136.94 411.17zM314 447.14a21 21 0 1121-21A21 21 0 01314 447.14zm0-36a15 15 0 1015 15A15 15 0 00314 411.17z"></path>
    <rect width="18.01" height="6" x="145.34" y="121.92" fill="#5e6175" transform="rotate(-45 154.347 124.928)"></rect>
    <rect width="6" height="18.01" x="130.13" y="103.85" fill="#5e6175"></rect>
    <rect width="18.01" height="6" x="157.9" y="142.04" fill="#5e6175"></rect>
    <polygon fill="#f5f5f5" points="171.19 186.06 92.96 186.06 139.9 359.99 199.8 359.99 171.19 186.06"></polygon>
    <path fill="#5e6175" d="M403.13,363H197.25L167.59,182.66l249.58,26.8Zm-200.78-6h195.3l13-142.2L174.79,189.46Z"></path>
    <path fill="#5e6175" d="M203.33,363H137.6L89,183.06h84.7Zm-61.13-6h54.07L168.64,189.06H96.88Z"></path>
    <path fill="#5e6175" d="M178.14,189.06H91.68L53.6,149.34h87.1Zm-83.9-6h70l-26.13-27.72H67.67Z"></path>
    <path fill="#5e6175" d="M132.08,162.63H43.29a10.3,10.3,0,0,1,0-20.59h88.79a10.3,10.3,0,0,1,0,20.59ZM43.29,148a4.3,4.3,0,0,0,0,8.59h88.79a4.3,4.3,0,0,0,0-8.59Z"></path>
    <path fill="#5e6175" d="M132.08,145H43.29a7.3,7.3,0,0,0,0,14.59h88.79a7.3,7.3,0,0,0,0-14.59Z"></path>
    <polygon fill="#5e6175" points="202.8 429.15 136.9 429.15 136.9 359.99 142.9 359.99 142.9 423.15 196.8 423.15 196.8 359.99 202.8 359.99 202.8 429.15"></polygon>
    <polygon fill="#5e6175" points="375.02 429.15 196.8 429.15 196.8 359.99 202.8 359.99 202.8 423.15 375.02 423.15 375.02 429.15"></polygon>
    <circle cx="199.8" cy="426.15" r="17.98" fill="#5e6175"></circle>
    <circle cx="375.03" cy="426.15" r="17.98" fill="#5e6175"></circle>
    <path fill="#5e6175" d="M199.8 447.14a21 21 0 1121-21A21 21 0 01199.8 447.14zm0-36a15 15 0 1015 15A15 15 0 00199.8 411.17zM375 447.14a21 21 0 1121-21A21 21 0 01375 447.14zm0-36a15 15 0 1015 15A15 15 0 00375 411.17z"></path>
    <circle cx="199.74" cy="426.15" r="6.48" fill="#f5f5f5"></circle>
    <circle cx="375.03" cy="426.15" r="6.48" fill="#f5f5f5"></circle>
    <path fill="#a9afc4" d="M235.28 227.89a12.21 12.21 0 0111.13 12.17v83.3a7 7 0 01-13.89.87l-10.44-82.64A12.22 12.22 0 01235.28 227.89zM306.22 235.17a12.26 12.26 0 0111.12 13.32l-6.88 75.45a7 7 0 01-14-.3L292.88 248A12.26 12.26 0 01306.22 235.17z"></path>
    <rect width="329.58" height="6" x="45.45" y="441.14" fill="#5e6175"></rect>
    <path fill="#a9afc4" d="M250.2,175.9v-6a19.63,19.63,0,0,0,5.23-.33l1.47,5.81A23.75,23.75,0,0,1,250.2,175.9Zm-10,0h-6v-6h6Zm26.46-7.3-4.93-3.41a10.86,10.86,0,0,0,1.78-4.32l5.91,1A16.69,16.69,0,0,1,266.66,168.6Zm-4.56-15.28a11.08,11.08,0,0,0-3.22-3.39l3.38-5a17.06,17.06,0,0,1,5,5.25Zm-11-5.28h-6v-6h6Zm-16,0a33.29,33.29,0,0,1-6.52-.3l1.07-5.91a29.09,29.09,0,0,0,5.45.21Zm-16.81-5.82a19.08,19.08,0,0,1-3.89-5.91l5.53-2.31a13,13,0,0,0,2.67,4.05Zm1-16.2-5.85-1.33a18.91,18.91,0,0,1,2.83-6.49l5,3.38A13,13,0,0,0,219.21,126Zm8.25-9.37L225.39,111a19.15,19.15,0,0,1,6.92-1.17v6A13.12,13.12,0,0,0,227.46,116.65Zm62.85-.8v-6a24.86,24.86,0,0,0,5.37-.23l1.22,5.88A29.56,29.56,0,0,1,290.31,115.85Zm-10,0h-6v-6h6Zm-16,0h-6v-6h6Zm-16,0h-6v-6h6ZM307,109.13l-4.79-3.62a10.84,10.84,0,0,0,2-4.23l5.86,1.28A16.86,16.86,0,0,1,307,109.13Zm-2.58-17.19c0-.1-.47-.06,6-.06Z"></path>
    <path fill="url(#b)" d="M307.37,88.46a14.12,14.12,0,0,1,14.12-14.12h10.87a14.12,14.12,0,0,1-14.13,14.12Z" style="mix-blend-mode:multiply"></path>
    <path fill="url(#c)" d="M307.37,88.46a14.12,14.12,0,0,0-14.12-14.12H282.38a14.12,14.12,0,0,0,14.13,14.12Z" style="mix-blend-mode:multiply"></path>
    <path fill="#5e6175" d="M318.23,91.46H304.37v-3a17.14,17.14,0,0,1,17.12-17.12h13.87v3A17.14,17.14,0,0,1,318.23,91.46Zm-7.45-6h7.45A11.15,11.15,0,0,0,329,77.34h-7.46A11.14,11.14,0,0,0,310.78,85.46Z"></path>
    <path fill="#5e6175" d="M310.37,91.46H296.51a17.14,17.14,0,0,1-17.13-17.12v-3h13.87a17.14,17.14,0,0,1,17.12,17.12ZM285.79,77.34a11.15,11.15,0,0,0,10.72,8.12H304a11.14,11.14,0,0,0-10.71-8.12Z"></path>
    <path fill="url(#d)" d="M382,95.52a14.13,14.13,0,0,1,0-20l7.69-7.69a14.14,14.14,0,0,1,0,20Z" style="mix-blend-mode:multiply"></path>
    <path fill="url(#e)" d="M382,95.52a14.12,14.12,0,0,0-20,0l-7.68,7.68a14.11,14.11,0,0,0,20,0Z" style="mix-blend-mode:multiply"></path>
    <path fill="#5e6175" d="M382,99.76l-2.12-2.12a17.12,17.12,0,0,1,0-24.22l9.81-9.8,2.12,2.12a17.12,17.12,0,0,1,0,24.22Zm7.4-27.37-5.27,5.28A11.12,11.12,0,0,0,382.32,91l5.27-5.27A11.14,11.14,0,0,0,389.42,72.39Z"></path>
    <path fill="#5e6175" d="M352.25,105.32l-2.12-2.12,9.8-9.8a17.12,17.12,0,0,1,24.22,0l2.12,2.12-9.81,9.8A17.09,17.09,0,0,1,352.25,105.32Zm6.65-2.4a11.11,11.11,0,0,0,13.32-1.84l5.27-5.27a11.13,11.13,0,0,0-13.32,1.83Z"></path>
    <path fill="#a9afc4" d="M417.19,189.06l-.13-6a12.64,12.64,0,0,0,4.71-1l2.37,5.51A18.61,18.61,0,0,1,417.19,189.06Zm-93.75-3h-6v-6h6Zm82.56-.43a18.73,18.73,0,0,1-4.91-5.13l5-3.25a12.9,12.9,0,0,0,3.34,3.49Zm26.91-5.84-5.18-3a12.55,12.55,0,0,0,1.58-4.54l5.94.85A18.4,18.4,0,0,1,432.91,179.79Zm-109.47-9.73h-6a23.28,23.28,0,0,1,.59-6.7l5.81,1.49A18.52,18.52,0,0,0,323.44,170.06Zm80.68-.71h-6a15,15,0,0,0-.54-5l5.74-1.75A20.6,20.6,0,0,1,404.12,169.35Zm31.32-6.69h-6v-6h6Zm-107.31-4.5-3.78-4.66a18.61,18.61,0,0,1,6.27-3.34l1.76,5.73A12.66,12.66,0,0,0,328.13,158.16Zm64.85-.35a12.42,12.42,0,0,0-4.34-2.07l1.5-5.81a18.16,18.16,0,0,1,6.41,3.06Zm-13.55-2.47h-6v-6h6Zm-16,0h-6v-6h6Zm-16,0h-6v-6h6Zm88-8.68h-6v-6h6Zm0-16h-6v-6h6Zm-6.6-15a12.53,12.53,0,0,0-2.31-4.22l4.61-3.84a18.58,18.58,0,0,1,3.42,6.24Zm-9-8.44a19.64,19.64,0,0,0-5.26-.36v-6a24.52,24.52,0,0,1,6.68.53Zm-15.26-.36h-6v-6h6Z"></path>
    <path fill="#5e6175" d="M106.79 354.14a9.13 9.13 0 116.41-15.63A9.12 9.12 0 01106.79 354.14zm0-12.26a3.13 3.13 0 103.13 3.11A3.13 3.13 0 00106.79 341.88zM75.05 401.56A12.46 12.46 0 1187.51 389h0A12.47 12.47 0 0175.05 401.56zm0-18.91a6.46 6.46 0 106.46 6.41h0A6.47 6.47 0 0075.05 382.65z"></path>
    <circle cx="417.32" cy="333.49" r="58.68" fill="#f5f5f5"></circle>
    <path fill="#5e6175" d="M417.32,395.18A61.69,61.69,0,1,1,479,333.49,61.75,61.75,0,0,1,417.32,395.18Zm0-117.37A55.69,55.69,0,1,0,473,333.49,55.75,55.75,0,0,0,417.32,277.81Z"></path>
    <rect width="66" height="22.35" x="384.1" y="322.02" fill="#e1830e" transform="rotate(-45 417.106 333.2)"></rect>
    <rect width="22.35" height="66" x="405.93" y="300.2" fill="#e1830e" transform="rotate(-45 417.106 333.2)"></rect>
  </g>
</svg>
