<svg width="32" height="32" viewBox="0 0 32 32" fill="none" xmlns="http://www.w3.org/2000/svg">
<rect width="32" height="32" rx="4" fill="#B31BD5"/>
<path d="M10.032 16.4C10.032 15.04 10.304 13.856 10.848 12.848C11.392 11.824 12.144 11.032 13.104 10.472C14.08 9.912 15.192 9.632 16.44 9.632C18.056 9.632 19.384 10.024 20.424 10.808C21.48 11.592 22.176 12.68 22.512 14.072H20.16C19.936 13.272 19.496 12.64 18.84 12.176C18.2 11.712 17.4 11.48 16.44 11.48C15.192 11.48 14.184 11.912 13.416 12.776C12.648 13.624 12.264 14.832 12.264 16.4C12.264 17.984 12.648 19.208 13.416 20.072C14.184 20.936 15.192 21.368 16.44 21.368C17.4 21.368 18.2 21.144 18.84 20.696C19.48 20.248 19.92 19.608 20.16 18.776H22.512C22.16 20.12 21.456 21.2 20.4 22.016C19.344 22.816 18.024 23.216 16.44 23.216C15.192 23.216 14.08 22.936 13.104 22.376C12.144 21.816 11.392 21.024 10.848 20C10.304 18.976 10.032 17.776 10.032 16.4Z" fill="white"/>
</svg>
