<svg width="136" height="28" viewBox="0 0 136 28" fill="none" xmlns="http://www.w3.org/2000/svg">
<path d="M0.924 10.144C0.924 8.20267 1.344 6.476 2.184 4.964C3.024 3.43333 4.19067 2.248 5.684 1.408C7.196 0.549332 8.904 0.119999 10.808 0.119999C13.1413 0.119999 15.1387 0.735999 16.8 1.968C18.4613 3.2 19.572 4.88 20.132 7.008H14.868C14.476 6.18667 13.916 5.56133 13.188 5.132C12.4787 4.70267 11.6667 4.488 10.752 4.488C9.27733 4.488 8.08267 5.00133 7.168 6.028C6.25333 7.05467 5.796 8.42667 5.796 10.144C5.796 11.8613 6.25333 13.2333 7.168 14.26C8.08267 15.2867 9.27733 15.8 10.752 15.8C11.6667 15.8 12.4787 15.5853 13.188 15.156C13.916 14.7267 14.476 14.1013 14.868 13.28H20.132C19.572 15.408 18.4613 17.088 16.8 18.32C15.1387 19.5333 13.1413 20.14 10.808 20.14C8.904 20.14 7.196 19.72 5.684 18.88C4.19067 18.0213 3.024 16.836 2.184 15.324C1.344 13.812 0.924 12.0853 0.924 10.144ZM30.1761 20.224C28.6455 20.224 27.2641 19.8973 26.0321 19.244C24.8188 18.5907 23.8575 17.6573 23.1481 16.444C22.4575 15.2307 22.1121 13.812 22.1121 12.188C22.1121 10.5827 22.4668 9.17333 23.1761 7.96C23.8855 6.728 24.8561 5.78533 26.0881 5.132C27.3201 4.47867 28.7015 4.152 30.2321 4.152C31.7628 4.152 33.1441 4.47867 34.3761 5.132C35.6081 5.78533 36.5788 6.728 37.2881 7.96C37.9975 9.17333 38.3521 10.5827 38.3521 12.188C38.3521 13.7933 37.9881 15.212 37.2601 16.444C36.5508 17.6573 35.5708 18.5907 34.3201 19.244C33.0881 19.8973 31.7068 20.224 30.1761 20.224ZM30.1761 16.08C31.0908 16.08 31.8655 15.744 32.5001 15.072C33.1535 14.4 33.4801 13.4387 33.4801 12.188C33.4801 10.9373 33.1628 9.976 32.5281 9.304C31.9121 8.632 31.1468 8.296 30.2321 8.296C29.2988 8.296 28.5241 8.632 27.9081 9.304C27.2921 9.95733 26.9841 10.9187 26.9841 12.188C26.9841 13.4387 27.2828 14.4 27.8801 15.072C28.4961 15.744 29.2615 16.08 30.1761 16.08ZM45.3723 16.052H52.1483V20H40.0243V16.192L46.5203 8.324H40.0802V4.376H52.0083V8.184L45.3723 16.052ZM70.7429 4.376L60.9429 27.42H55.7909L59.3749 19.468L53.0189 4.376H58.3669L61.9789 14.148L65.5629 4.376H70.7429ZM90.0583 20H85.2703L77.2623 7.876V20H72.4743V0.343999H77.2623L85.2703 12.524V0.343999H90.0583V20ZM108.257 11.936C108.257 12.384 108.229 12.8507 108.173 13.336H97.337C97.4116 14.3067 97.7196 15.0533 98.261 15.576C98.821 16.08 99.5023 16.332 100.305 16.332C101.5 16.332 102.33 15.828 102.797 14.82H107.893C107.632 15.8467 107.156 16.7707 106.465 17.592C105.793 18.4133 104.944 19.0573 103.917 19.524C102.89 19.9907 101.742 20.224 100.473 20.224C98.9423 20.224 97.5796 19.8973 96.385 19.244C95.1903 18.5907 94.257 17.6573 93.585 16.444C92.913 15.2307 92.577 13.812 92.577 12.188C92.577 10.564 92.9036 9.14533 93.557 7.932C94.229 6.71867 95.1623 5.78533 96.357 5.132C97.5516 4.47867 98.9236 4.152 100.473 4.152C101.985 4.152 103.329 4.46933 104.505 5.104C105.681 5.73867 106.596 6.644 107.249 7.82C107.921 8.996 108.257 10.368 108.257 11.936ZM103.357 10.676C103.357 9.85467 103.077 9.20133 102.517 8.716C101.957 8.23067 101.257 7.988 100.417 7.988C99.6143 7.988 98.933 8.22133 98.373 8.688C97.8316 9.15467 97.4956 9.81733 97.365 10.676H103.357ZM117.139 20.224C115.776 20.224 114.563 19.9907 113.499 19.524C112.435 19.0573 111.595 18.4227 110.979 17.62C110.363 16.7987 110.018 15.884 109.943 14.876H114.675C114.731 15.4173 114.983 15.856 115.431 16.192C115.879 16.528 116.43 16.696 117.083 16.696C117.68 16.696 118.138 16.584 118.455 16.36C118.791 16.1173 118.959 15.8093 118.959 15.436C118.959 14.988 118.726 14.6613 118.259 14.456C117.792 14.232 117.036 13.9893 115.991 13.728C114.871 13.4667 113.938 13.196 113.191 12.916C112.444 12.6173 111.8 12.16 111.259 11.544C110.718 10.9093 110.447 10.06 110.447 8.996C110.447 8.1 110.69 7.288 111.175 6.56C111.679 5.81333 112.407 5.22533 113.359 4.796C114.33 4.36667 115.478 4.152 116.803 4.152C118.763 4.152 120.303 4.63733 121.423 5.608C122.562 6.57867 123.215 7.86667 123.383 9.472H118.959C118.884 8.93067 118.642 8.50133 118.231 8.184C117.839 7.86667 117.316 7.708 116.663 7.708C116.103 7.708 115.674 7.82 115.375 8.044C115.076 8.24933 114.927 8.53867 114.927 8.912C114.927 9.36 115.16 9.696 115.627 9.92C116.112 10.144 116.859 10.368 117.867 10.592C119.024 10.8907 119.967 11.1893 120.695 11.488C121.423 11.768 122.058 12.2347 122.599 12.888C123.159 13.5227 123.448 14.3813 123.467 15.464C123.467 16.3787 123.206 17.2 122.683 17.928C122.179 18.6373 121.442 19.1973 120.471 19.608C119.519 20.0187 118.408 20.224 117.139 20.224ZM135.104 15.94V20H132.668C130.932 20 129.579 19.58 128.608 18.74C127.637 17.8813 127.152 16.4907 127.152 14.568V8.352H125.248V4.376H127.152V0.568H131.94V4.376H135.076V8.352H131.94V14.624C131.94 15.0907 132.052 15.4267 132.276 15.632C132.5 15.8373 132.873 15.94 133.396 15.94H135.104Z" fill="#B31BD5"/>
</svg>
