<svg xmlns="http://www.w3.org/2000/svg" enable-background="new 0 0 68 68" viewBox="0 0 68 68" id="empty-cart">
  <path d="M62.2078857,17.1220703H51.8123779c-0.4265137-5.184082-4.7734375-9.2739258-10.0656738-9.2739258c-5.291748,0-9.6386719,4.0898438-10.0651855,9.2739258H18.237915l-0.7399902-3.8500977c-0.3199463-1.6601563-1.6999521-2.8798828-3.3399668-3.0600586c-0.4300537-1.2602539-1.6099854-2.1801758-3.0200195-2.1801758H5.197875c-1.7600098,0-3.1999512,1.4301758-3.1999512,3.1904297c0,1.7695313,1.4399414,3.199707,3.1999512,3.199707h5.9400635c1.3699951,0,2.5300293-0.8701172,2.9899902-2.0800781c0.6500244,0.1499023,1.1800537,0.6499023,1.3099365,1.3198242l5.9500742,30.800293c-2.2199707,0.2099609-3.9799805,2.1000977-3.9799805,4.3701172c0,2.4296875,1.9699707,4.3999023,4.3900146,4.3999023h4.2299805c-0.8100586,0.7299805-1.3200684,1.7700195-1.3200684,2.9296875c0,2.2001953,1.7900391,3.9902344,3.9899902,3.9902344c2.2000732,0,3.9899902-1.7900391,3.9899902-3.9902344c0-1.159668-0.5098877-2.199707-1.3199463-2.9296875H48.197876c-0.8099365,0.7299805-1.3199463,1.7700195-1.3199463,2.9296875c0,2.2001953,1.7900391,3.9902344,3.9899902,3.9902344c2.2000732,0,3.9901123-1.7900391,3.9901123-3.9902344c0-1.159668-0.5100098-2.199707-1.3200684-2.9296875h5.1400146c0.5799561,0,1.0499268-0.4702148,1.0499268-1.0498047c0-0.5800781-0.4699707-1.050293-1.0499268-1.050293H21.7979736c-1.2600098,0-2.2900391-1.0297852-2.2900391-2.2998047c0-1.2602539,1.0300293-2.2802734,2.2900391-2.2802734h33.9499512c2.9100342,0,5.4499512-2.0795898,6.0400391-4.9296875l4.1300049-19.9301758C66.4172516,19.3615665,64.6315536,17.1220703,62.2078857,17.1220703z M41.7467041,9.8481445c4.4707031,0,8.1079102,3.637207,8.1079102,8.1079102c0,4.4702148-3.637207,8.1079102-8.1079102,8.1079102c-4.4702148,0-8.1074219-3.6376953-8.1074219-8.1079102C33.6392822,13.4853516,37.2764893,9.8481445,41.7467041,9.8481445z M63.8679199,21.2617188L59.737915,41.2016602c-0.3898926,1.8803711-2.0599365,3.2402344-3.9899902,3.2402344H23.5279541l-4.7700195-25.2299805h12.9678955c0.3122559,2.5029297,1.541748,4.7192383,3.3421631,6.3105469v11.5893555c0,1.1298828,0.9299316,2.0400391,2.0599365,2.0400391s2.0400391-0.9101563,2.0400391-2.0400391v-9.394043c0.8248291,0.2182617,1.6861572,0.3461914,2.5787354,0.3461914c0.7062988,0,1.3955078-0.0742188,2.0612793-0.2128906v9.2607422c0,1.1298828,0.9099121,2.0400391,2.0400391,2.0400391c1.1298828,0,2.0499268-0.9101563,2.0499268-2.0400391V25.9584961c2.0866699-1.6079102,3.5281982-4.0058594,3.8701172-6.746582h10.4398193C63.2068214,19.2119141,64.0762405,20.1184921,63.8679199,21.2617188z"></path>
  <path d="M28.3800049 23.375c-1.1286621 0-2.0437012.9150391-2.0437012 2.043457v11.6928711c0 1.1289063.9150391 2.0439453 2.0437012 2.0439453 1.1386719 0 2.0539551-.9150391 2.0539551-2.0439453V25.418457C30.43396 24.2900391 29.5186768 23.375 28.3800049 23.375zM54.5921631 23.375c-1.1386719 0-2.0535889.9150391-2.0535889 2.043457v11.6928711c0 1.1289063.914917 2.0439453 2.0535889 2.0439453 1.1287842 0 2.0440674-.9150391 2.0440674-2.0439453V25.418457C56.6362305 24.2900391 55.7209473 23.375 54.5921631 23.375zM38.6680908 21.034668c.3906136.3906136 1.0234261.3906364 1.4140625 0l1.6647949-1.6645508 1.6647949 1.6645508c.3906136.3906136 1.0234261.3906364 1.4140625 0 .390625-.390625.390625-1.0234375 0-1.4140625l-1.6647949-1.6645508 1.6647949-1.6645508c.390625-.390625.390625-1.0239258 0-1.4140625-.390625-.390625-1.0234375-.390625-1.4140625 0l-1.6647949 1.6645508-1.6647949-1.6645508c-.390625-.390625-1.0234375-.390625-1.4140625 0-.390625.3901367-.390625 1.0234375 0 1.4140625l1.6647949 1.6645508-1.6647949 1.6645508C38.2774658 20.0112305 38.2774658 20.644043 38.6680908 21.034668z"></path>
</svg>
